<svg xmlns="http://www.w3.org/2000/svg" xmlns:xlink="http://www.w3.org/1999/xlink" viewBox="0 0 104.67 105.4"><defs><style>.cls-1{fill:none;}.cls-2{isolation:isolate;}.cls-3{fill:#f9b233;}.cls-4{clip-path:url(#clip-path);}.cls-5{fill:#190900;}.cls-6{fill:#f9c2a7;}.cls-7{fill:#ededed;mix-blend-mode:multiply;}.cls-8{fill:#e1b099;}.cls-9{fill:#e74645;}.cls-10{fill:#432918;}</style><clipPath id="clip-path"><circle class="cls-1" cx="52.33" cy="52.33" r="52.33" transform="translate(-7.74 95.57) rotate(-80.74)"/></clipPath></defs><g class="cls-2"><g id="Capa_2" data-name="Capa 2"><g id="Capa_1-2" data-name="Capa 1"><circle class="cls-3" cx="52.33" cy="52.33" r="52.33" transform="translate(-6.38 97.4) rotate(-82.51)"/><g class="cls-4"><path class="cls-5" d="M28.38,47.93c-.29.43-1.19,36.82,5.21,44.27H69.78s9.89-27.94,3.16-44.27H28.17"/><rect class="cls-6" x="42.89" y="67.93" width="20.04" height="13.5"/><path class="cls-7" d="M47.75,77.7a27,27,0,0,0,9.59,2,31.88,31.88,0,0,0,5.59-.54V67.93h-20v7A16.9,16.9,0,0,0,47.75,77.7Z"/><path class="cls-6" d="M74.6,42.53c.07-.5.92-1.31,1.28-1.58a1.22,1.22,0,0,1,1.9.81A10.41,10.41,0,0,1,78.06,44a9.82,9.82,0,0,1-1,5.17,6.92,6.92,0,0,1-2.38,2.63.86.86,0,0,1-1.3-.69Z"/><path class="cls-8" d="M74.43,43.6c0-.35.65-.93.92-1.13a.87.87,0,0,1,1.35.58,7.25,7.25,0,0,1,.21,1.61,7.16,7.16,0,0,1-.68,3.7,5,5,0,0,1-1.71,1.88.61.61,0,0,1-.92-.5Z"/><path class="cls-6" d="M30.71,42.53c-.07-.5-.91-1.31-1.28-1.58-.83-.61-1.65,0-1.89.81A9.82,9.82,0,0,0,27.25,44a9.82,9.82,0,0,0,.95,5.17,7,7,0,0,0,2.39,2.63.85.85,0,0,0,1.29-.69Z"/><path class="cls-8" d="M30.88,43.6c-.05-.35-.65-.93-.92-1.13a.87.87,0,0,0-1.35.58,7.89,7.89,0,0,0-.21,1.61,7.07,7.07,0,0,0,.69,3.7,5,5,0,0,0,1.7,1.88.62.62,0,0,0,.93-.5Z"/><path class="cls-6" d="M75.26,44.14c0,5.66-1,11.38-3.64,16.27A32.3,32.3,0,0,1,62,70.86c-3.05,2.22-6.32,4.81-10.17,4.5-4-.33-7.16-3.76-10.09-6.44A34.91,34.91,0,0,1,32.37,55a32.16,32.16,0,0,1-1.81-10.86c0-18.29,10-29.79,22.35-29.79S75.26,25.85,75.26,44.14Z"/><path class="cls-6" d="M83.4,87.54,61.64,81H44.18L22.42,87.54S12.33,91.83,11.21,105.4h83.4C93.49,91.83,83.4,87.54,83.4,87.54Z"/><path class="cls-9" d="M83.4,87.54l-12-3.61L52.91,102.37,34.4,84l-12,3.59S12.33,91.83,11.21,105.4h83.4C93.49,91.83,83.4,87.54,83.4,87.54Z"/><path class="cls-10" d="M37.74,21.61s10.77,17.07,37.45,20c0,0,5-19.45-13.72-28.91C61.47,12.68,47.11,6.75,37.74,21.61Z"/><path class="cls-10" d="M40.5,25.06s-7,4.5-10,17.05c0,0-3.23-23.65,13.5-26.6Z"/><path class="cls-10" d="M67.78,39.62s7.16,45.56-4.16,58.46c0,0,14.47-2.15,15.19-22.07,0,0,2.58-40.69-7.21-54.73Z"/><path class="cls-10" d="M37.16,98.08s-16.66-2-12.08-53.22c0,0,1.15-28.45,17.81-29.11l-1,10.8s-9.58,2.85-8.34,25.37C33.59,51.92,32.61,88.19,37.16,98.08Z"/></g></g></g></g></svg>