<svg xmlns="http://www.w3.org/2000/svg" xmlns:xlink="http://www.w3.org/1999/xlink" viewBox="0 0 104.67 107.07"><defs><style>.cls-1{fill:none;}.cls-2{isolation:isolate;}.cls-3{fill:#f08046;}.cls-4{clip-path:url(#clip-path);}.cls-5{fill:#f9c2a7;}.cls-6{fill:#ededed;}.cls-11,.cls-6{mix-blend-mode:multiply;}.cls-7{fill:#e1b099;}.cls-8{fill:#fff;}.cls-9{fill:#3f0700;}.cls-10{fill:#1db2a8;}.cls-11{fill:#dadada;}.cls-12{fill:#290000;}.cls-13{fill:#e9e9e9;}.cls-14{fill:#1e0e00;}.cls-15{fill:#251403;}</style><clipPath id="clip-path"><circle class="cls-1" cx="52.33" cy="52.33" r="52.33" transform="translate(-21.68 52.33) rotate(-45)"/></clipPath></defs><g class="cls-2"><g id="Capa_2" data-name="Capa 2"><g id="Capa_1-2" data-name="Capa 1"><circle class="cls-3" cx="52.33" cy="52.33" r="52.33" transform="translate(-21.68 52.33) rotate(-45)"/><g class="cls-4"><rect class="cls-5" x="42.31" y="69.56" width="20.04" height="13.5"/><path class="cls-6" d="M47.17,79.33a27,27,0,0,0,9.59,2,31.79,31.79,0,0,0,5.59-.54V69.56h-20v7A16.9,16.9,0,0,0,47.17,79.33Z"/><path class="cls-5" d="M73.26,44.56c.06-.49.88-1.29,1.23-1.56.8-.6,1.6,0,1.83.8A10.2,10.2,0,0,1,76.59,46a9.88,9.88,0,0,1-.92,5.11,6.78,6.78,0,0,1-2.3,2.6A.81.81,0,0,1,72.13,53S73.25,44.56,73.26,44.56Z"/><path class="cls-7" d="M73.09,45.62c0-.35.63-.92.88-1.12.57-.43,1.14,0,1.31.58a7.59,7.59,0,0,1,.2,1.58,7,7,0,0,1-.66,3.65,4.88,4.88,0,0,1-1.65,1.87.58.58,0,0,1-.89-.49Z"/><path class="cls-5" d="M30.9,44.56A3.71,3.71,0,0,0,29.66,43c-.79-.6-1.59,0-1.82.8A10.21,10.21,0,0,0,27.56,46a10,10,0,0,0,.92,5.11,6.87,6.87,0,0,0,2.3,2.6A.82.82,0,0,0,32,53Z"/><path class="cls-7" d="M31.06,45.62c0-.35-.62-.92-.88-1.12-.57-.43-1.14,0-1.31.58a7.58,7.58,0,0,0-.19,1.58,7.14,7.14,0,0,0,.65,3.65A5,5,0,0,0,31,52.18a.58.58,0,0,0,.89-.49S31.07,45.62,31.06,45.62Z"/><path class="cls-5" d="M73.89,46.15a34.19,34.19,0,0,1-3.52,16.08,31.73,31.73,0,0,1-9.25,10.32C58.18,74.74,55,77.3,51.31,77c-3.88-.33-6.9-3.72-9.74-6.36A34.58,34.58,0,0,1,32.5,56.88a32.65,32.65,0,0,1-1.74-10.73c0-18.07,9.65-29.43,21.56-29.43S73.89,28.08,73.89,46.15Z"/><path class="cls-5" d="M87.33,89.17l-25-6.53h-20l-25,6.53A21.42,21.42,0,0,0,4.48,107h95.71A21.44,21.44,0,0,0,87.33,89.17Z"/><path class="cls-8" d="M87.33,89.17l-25-6.53h-20l-25,6.53A21.42,21.42,0,0,0,4.48,107h95.71A21.44,21.44,0,0,0,87.33,89.17Z"/><path class="cls-9" d="M87.33,89.17,68.85,84.34,52.33,107,36,84.29,17.34,89.17A21.42,21.42,0,0,0,4.48,107h95.71A21.44,21.44,0,0,0,87.33,89.17Z"/><polygon class="cls-10" points="50.14 95.66 45.54 107.03 58.62 107.03 54.13 95.66 50.14 95.66"/><polygon class="cls-10" points="52.03 82.86 46.17 90.72 50.24 95.69 52.24 95.66 54.23 95.63 58.14 90.53 52.03 82.86"/><path class="cls-11" d="M55.94,89.69c-.74,1.48-2.14,3.17-4,2.75a3.25,3.25,0,0,1-2.4-4.16c.44-1.83,1.62-3.36,2.28-5.09l-5.62,7.53,4.07,5,4-.06,3.91-5.1-1.65-2.08A10.61,10.61,0,0,1,55.94,89.69Z"/><polygon class="cls-12" points="52.33 107.03 36 84.29 22.94 87.71 39.63 99.46 35.34 101.35 43.06 107.03 52.33 107.03"/><polygon class="cls-12" points="52.33 107.06 68.67 84.32 81.73 87.74 65.04 99.49 69.33 101.38 61.61 107.06 52.33 107.06"/><polygon class="cls-13" points="32.48 83.12 42.28 78.52 52.26 82.69 62.25 78.52 72.72 83.12 57.92 93.03 52.26 84.93 46.17 93.03 32.48 83.12"/><path class="cls-14" d="M65,69.28s5.41-5.12,6.61-9.64c0,0-6.39,5.77-8.62,5.15Z"/><path class="cls-14" d="M41.21,70.81s-6.28-5.37-8-12.11c0,0,7.16,8.26,9.39,7.65Z"/><path class="cls-15" d="M56.15,62a11.08,11.08,0,0,1,5.47,1.27c3.12,1.47,3.91,5.46,3.91,5.46a27.12,27.12,0,0,1-4.75,4C54.87,77.63,52.16,77,52.16,77a9.37,9.37,0,0,1-5.72-2.1l-5.53-4.33a7.57,7.57,0,0,1,3.6-7.36c2.58-1.25,3.05-1.09,3.05-1.09s3.86-.45,4.8,1.09c0,0,1-1.27,3.6-1.27"/><path class="cls-5" d="M52.85,66a8,8,0,0,0-6,.09s5.36,5.68,11.44.07C58.33,66.16,55.07,64.64,52.85,66Z"/><path class="cls-14" d="M74.08,19.5a10.53,10.53,0,0,0,4.33-9,12,12,0,0,1-7,3.52c4.29-2.58,2.16-7.93,2.16-7.93-1.34,3-7.3,4.71-7.3,4.71,2.89-1.93,1.09-6.32,1.09-6.32-2,3.43-8.06,4.93-8.06,4.93C63.3,7.18,63.72,4,63.72,4,60.19,7.07,50.54,8.57,50.54,8.57s-10.62,1-13.26,9.8C29.51,19.49,29.43,32.62,30,39.72h0l.5,8.57h1.72a36.65,36.65,0,0,1,0-9.68h0a76.44,76.44,0,0,1,2.56-8c1.85-4,4.72-5.24,6.55-5.6L43,24.86c7.61-1.11,9.85,4.29,9.85,4.29C54.07,26,58,25.29,58,25.29c11.58-1.54,13.24,7.61,13.24,7.61l1.3,5.82a39.51,39.51,0,0,1-.09,9.57h1.72l.49-8.57a4.19,4.19,0,0,0,0-.71C75.57,34.22,76.35,26.43,74.08,19.5Z"/></g></g></g></g></svg>